<?xml version="1.0" encoding="UTF-8"?>
<!DOCTYPE svg PUBLIC "-//W3C//DTD SVG 1.1//EN" "http://www.w3.org/Graphics/SVG/1.1/DTD/svg11.dtd">
<!-- Creator: CorelDRAW X6 -->
<svg xmlns="http://www.w3.org/2000/svg" xml:space="preserve" width="11.4079cm" height="11.0288cm" version="1.1" style="shape-rendering:geometricPrecision; text-rendering:geometricPrecision; image-rendering:optimizeQuality; fill-rule:evenodd; clip-rule:evenodd"
viewBox="0 0 205 198"
 xmlns:xlink="http://www.w3.org/1999/xlink">
 <defs>
  <style type="text/css">
   <![CDATA[
    .fil0 {fill:#2D2748;fill-rule:nonzero}
   ]]>
  </style>
 </defs>
 <g id="Layer_x0020_1">
  <metadata id="CorelCorpID_0Corel-Layer"/>
  <path class="fil0" d="M5 12l50 0 0 -12 11 0 0 12 76 0 0 -12 11 0 0 12 47 0 5 0 0 5 0 175 0 5 -5 0 -194 0 -5 0 0 -5 0 -175 0 -5 5 0zm189 11l-41 0 0 21 -11 0 0 -21 -76 0 0 21 -11 0 0 -21 -44 0 0 52 183 0 0 -52zm0 164l0 -101 -179 0c6,11 14,19 23,25 11,7 23,10 38,8l6 -1 0 6c-1,21 12,35 33,44 21,9 49,15 80,19zm-183 1l128 0c-10,-3 -20,-6 -28,-10 -23,-10 -38,-25 -39,-48 -15,1 -28,-3 -39,-10 -8,-5 -15,-12 -21,-21l0 88z"/>
 </g>
</svg>
