<?xml version="1.0" encoding="UTF-8"?>
<!DOCTYPE svg PUBLIC "-//W3C//DTD SVG 1.1//EN" "http://www.w3.org/Graphics/SVG/1.1/DTD/svg11.dtd">
<!-- Creator: CorelDRAW X6 -->
<svg xmlns="http://www.w3.org/2000/svg" xml:space="preserve" width="8.04222cm" height="7.78771cm" version="1.1" style="shape-rendering:geometricPrecision; text-rendering:geometricPrecision; image-rendering:optimizeQuality; fill-rule:evenodd; clip-rule:evenodd"
viewBox="0 0 316 306"
 xmlns:xlink="http://www.w3.org/1999/xlink">
 <defs>
  <style type="text/css">
   <![CDATA[
    .fil0 {fill:#2D2748}
   ]]>
  </style>
 </defs>
 <g id="Layer_x0020_1">
  <metadata id="CorelCorpID_0Corel-Layer"/>
  <path class="fil0" d="M274 306l-49 0 0 -114 39 0 10 -48 -48 0c0,-11 -1,-25 3,-34 3,-7 12,-14 23,-14 4,0 19,1 22,0l0 -46c0,-4 0,-2 -1,-3 -14,0 -35,-1 -47,1 -13,2 -26,10 -32,17 -19,23 -17,43 -17,79l-39 0 0 48 38 1 0 113 -134 0c-23,0 -42,-19 -42,-42l0 -222c0,-23 19,-42 42,-42l232 0c23,0 42,19 42,42l0 222c0,23 -19,42 -42,42z"/>
 </g>
</svg>
