<?xml version="1.0" encoding="UTF-8"?>
<!DOCTYPE svg PUBLIC "-//W3C//DTD SVG 1.1//EN" "http://www.w3.org/Graphics/SVG/1.1/DTD/svg11.dtd">
<!-- Creator: CorelDRAW X6 -->
<svg xmlns="http://www.w3.org/2000/svg" xml:space="preserve" width="8.27519cm" height="8.35728cm" version="1.1" style="shape-rendering:geometricPrecision; text-rendering:geometricPrecision; image-rendering:optimizeQuality; fill-rule:evenodd; clip-rule:evenodd"
viewBox="0 0 234 236"
 xmlns:xlink="http://www.w3.org/1999/xlink">
 <defs>
  <style type="text/css">
   <![CDATA[
    .fil0 {fill:#2D2748}
   ]]>
  </style>
 </defs>
 <g id="Layer_x0020_1">
  <metadata id="CorelCorpID_0Corel-Layer"/>
  <path class="fil0" d="M117 159c-3,0 -6,-1 -9,-1 -3,-1 -5,-1 -8,-2 -5,-2 -11,-6 -15,-10 -1,-1 -1,-1 -1,-1 -14,-17 -13,-40 3,-55 15,-15 37,-16 53,-4 6,4 9,9 12,15 0,1 0,1 1,2 7,15 3,34 -9,45l-5 4c-6,4 -15,8 -23,8l0 0zm-58 -27c2,7 6,17 12,23 3,4 6,7 10,10 5,4 10,7 16,9 7,3 9,2 17,3 3,0 15,0 18,-2l0 -1 5 0c3,0 10,-4 13,-6 2,-1 4,-3 5,-4 2,-1 3,-3 5,-4 20,-20 23,-51 8,-75 -6,-8 -16,-18 -25,-21 -16,-6 -30,-8 -47,-1 -1,1 -2,1 -3,1 -26,11 -39,41 -33,68l0 0zm137 -104l0 -3 -5 0c1,1 -1,0 1,1 1,0 1,1 1,1 1,1 1,1 3,1l0 0zm4 -19c0,0 0,0 -1,-1 -1,0 -1,0 -1,-1 -1,-1 -1,-1 -2,-1 1,1 1,1 1,3l4 0 0 0zm-9 16l5 0 0 3c1,2 2,2 3,3 3,3 7,7 9,11 3,5 6,14 6,21 0,35 0,73 0,109 0,11 -7,26 -15,32 -2,1 -2,1 -4,3 -2,1 -1,0 -2,1 -2,1 -1,0 -2,2 -3,1 -6,3 -12,5 -11,3 -38,2 -51,2 -14,0 -59,1 -70,-1 -18,-2 -32,-15 -38,-32 -3,-9 -3,-20 -3,-32l0 -70c0,-12 -1,-23 3,-32 5,-16 20,-30 38,-32 10,-1 88,-1 104,-1 10,0 14,1 22,4 2,1 5,3 6,3l1 0zm5 204c1,0 1,0 2,-1 1,0 1,0 1,-1 1,-1 0,0 1,-1 18,-10 32,-33 33,-55l0 -107c0,-15 -5,-28 -14,-39 -4,-6 -14,-15 -19,-17l-4 0c0,-2 0,-1 -1,-3l-1 0c-5,-3 -9,-3 -14,-5 -3,-1 -10,-1 -17,-1l-41 0 -61 0c-6,0 -12,2 -16,3 -19,6 -34,21 -41,39 -4,10 -5,20 -5,35l0 1 0 81c0,19 1,35 12,49 9,12 19,21 35,26 8,2 15,3 22,3l15 0 81 0c12,0 19,-1 30,-5l3 -2 0 0zm-66 -54l5 -2 -5 0 0 2zm64 -121c0,-8 -6,-14 -14,-14 -8,0 -14,6 -14,14 0,8 6,14 14,14 8,0 14,-6 14,-14z"/>
 </g>
</svg>
