<?xml version="1.0" encoding="UTF-8"?>
<!DOCTYPE svg PUBLIC "-//W3C//DTD SVG 1.1//EN" "http://www.w3.org/Graphics/SVG/1.1/DTD/svg11.dtd">
<!-- Creator: CorelDRAW X6 -->
<svg xmlns="http://www.w3.org/2000/svg" xml:space="preserve" width="13cm" height="17.922cm" version="1.1" style="shape-rendering:geometricPrecision; text-rendering:geometricPrecision; image-rendering:optimizeQuality; fill-rule:evenodd; clip-rule:evenodd"
viewBox="0 0 41880 57758"
 xmlns:xlink="http://www.w3.org/1999/xlink">
 <defs>
  <style type="text/css">
   <![CDATA[
    .fil0 {fill:#777288;fill-rule:nonzero}
   ]]>
  </style>
 </defs>
 <g id="Layer_x0020_1">
  <metadata id="CorelCorpID_0Corel-Layer"/>
  <path class="fil0" d="M19445 0l2989 0c5349,0 10212,2187 13735,5711 3523,3523 5711,8386 5711,13735l0 18867c0,5349 -2187,10211 -5711,13735 -3523,3523 -8386,5711 -13735,5711l-2989 0c-5349,0 -10211,-2187 -13735,-5711 -3523,-3524 -5711,-8386 -5711,-13735l0 -18867c0,-5349 2187,-10212 5711,-13735 3524,-3523 8386,-5711 13735,-5711zm2989 3400l-2989 0c-4411,0 -8422,1806 -11331,4714 -2908,2908 -4714,6920 -4714,11331l0 18867c0,4411 1806,8422 4714,11331 2909,2908 6920,4714 11331,4714l2989 0c4411,0 8422,-1806 11331,-4714 2908,-2909 4714,-6920 4714,-11331l0 -18867c0,-4411 -1806,-8422 -4714,-11331 -2908,-2908 -6920,-4714 -11331,-4714zm2030 5204l0 14033c-2745,0 -3831,0 -6576,0l0 -14033c2745,0 3831,0 6576,0z"/>
 </g>
</svg>
