<?xml version="1.0" encoding="UTF-8"?>
<!DOCTYPE svg PUBLIC "-//W3C//DTD SVG 1.1//EN" "http://www.w3.org/Graphics/SVG/1.1/DTD/svg11.dtd">
<!-- Creator: CorelDRAW X6 -->
<svg xmlns="http://www.w3.org/2000/svg" xml:space="preserve" width="18.8058cm" height="18.8058cm" version="1.1" style="shape-rendering:geometricPrecision; text-rendering:geometricPrecision; image-rendering:optimizeQuality; fill-rule:evenodd; clip-rule:evenodd"
viewBox="0 0 3258 3258"
 xmlns:xlink="http://www.w3.org/1999/xlink">
 <defs>
  <style type="text/css">
   <![CDATA[
    .fil0 {fill:#2D2748;fill-rule:nonzero}
   ]]>
  </style>
 </defs>
 <g id="Layer_x0020_1">
  <metadata id="CorelCorpID_0Corel-Layer"/>
  <path class="fil0" d="M2085 1983c29,-32 78,-35 110,-6 32,29 35,78 6,110l-503 558c-29,32 -78,35 -110,6l-529 -541c-30,-31 -30,-80 1,-110 31,-30 80,-30 110,1l381 389 0 -1725c0,-43 35,-78 78,-78 43,0 78,35 78,78l0 1738 378 -420zm1173 -354c0,450 -182,857 -477,1152 -295,295 -702,477 -1152,477 -450,0 -857,-182 -1152,-477 -295,-295 -477,-702 -477,-1152 0,-450 182,-857 477,-1152 295,-295 702,-477 1152,-477 450,0 857,182 1152,477 295,295 477,702 477,1152zm-588 1041c266,-266 431,-635 431,-1041 0,-407 -165,-775 -431,-1041 -266,-266 -635,-431 -1041,-431 -407,0 -775,165 -1041,431 -266,266 -431,635 -431,1041 0,407 165,775 431,1041 266,266 635,431 1041,431 407,0 775,-165 1041,-431z"/>
 </g>
</svg>
