<?xml version="1.0" encoding="UTF-8"?>
<!DOCTYPE svg PUBLIC "-//W3C//DTD SVG 1.1//EN" "http://www.w3.org/Graphics/SVG/1.1/DTD/svg11.dtd">
<!-- Creator: CorelDRAW X6 -->
<svg xmlns="http://www.w3.org/2000/svg" xml:space="preserve" width="50cm" height="23.9629cm" version="1.1" style="shape-rendering:geometricPrecision; text-rendering:geometricPrecision; image-rendering:optimizeQuality; fill-rule:evenodd; clip-rule:evenodd"
viewBox="0 0 12996 6228"
 xmlns:xlink="http://www.w3.org/1999/xlink">
 <defs>
  <style type="text/css">
   <![CDATA[
    .str0 {stroke:#00A859;stroke-width:34.1792}
    .fil0 {fill:#00A859}
   ]]>
  </style>
 </defs>
 <g id="Layer_x0020_1">
  <metadata id="CorelCorpID_0Corel-Layer"/>
  <g id="_787194160">
   <path class="fil0 str0" d="M1238 78c126,35 242,86 340,152 -442,-235 -1247,-198 -1189,420 54,383 708,649 1010,817 302,167 375,448 341,779 -29,190 -192,398 -336,462 -436,196 -922,33 -1181,-166 263,153 695,262 1060,68 368,-196 286,-700 -25,-909 -348,-248 -872,-471 -1016,-785 -96,-138 -51,-404 15,-544 286,-383 560,-411 981,-293z"/>
   <polygon class="fil0 str0" points="2090,42 4120,42 4120,115 3191,115 3191,2751 2981,2751 2981,115 2090,115 "/>
   <path class="fil0 str0" d="M6452 51l89 0 0 1895c-69,710 -766,1011 -1386,797 -139,-48 -334,-159 -489,-394 -57,-87 -110,-236 -109,-377l0 -1908 226 0 0 1908c-11,188 97,346 157,436 155,232 389,301 628,298 284,-4 577,-124 766,-394 65,-93 130,-237 118,-366l0 -1895z"/>
   <rect class="fil0 str0" x="9636" y="51" width="193" height="2702"/>
   <path class="fil0 str0" d="M11628 2822c742,0 1344,-626 1344,-1399 0,-773 -602,-1399 -1344,-1399 -742,0 -1344,626 -1344,1399 0,773 602,1399 1344,1399zm0 -41c613,0 1110,-608 1110,-1358 0,-750 -497,-1358 -1110,-1358 -613,0 -1110,608 -1110,1358 0,750 497,1358 1110,1358z"/>
   <path class="fil0 str0" d="M7065 85l214 0c97,0 699,15 800,31 700,112 1083,517 1082,1276 9,557 -184,921 -530,1122 -182,106 -406,167 -666,188 -209,17 -708,2 -686,2l-214 0 0 -2619zm214 24l0 2568c415,-18 911,-5 1173,-210 207,-162 380,-424 422,-674 186,-1097 -340,-1470 -817,-1609 -268,-78 -493,-64 -778,-74z"/>
  </g>
  <g id="_787179696">
   <rect class="fil0 str0" x="2145" y="3465" width="193" height="2702"/>
   <polygon class="fil0 str0" points="305,3465 374,3465 1721,3465 1721,3533 374,3533 374,4743 1497,4743 1497,4826 374,4826 374,6167 181,6167 181,3465 "/>
   <polygon class="fil0 str0" points="2983,6152 2859,6152 2859,3471 2948,3471 2983,3471 4954,5792 4954,3471 5078,3471 5078,6152 4954,6152 2983,3893 "/>
   <path class="fil0 str0" d="M11380 3465c533,0 1066,0 1599,0l0 83 -1406 0 0 1188 1211 0 0 83 -1211 0 0 1266 1406 0 0 83 -1406 0 -97 0 -96 0 0 -2702z"/>
   <path class="fil0 str0" d="M8588 3493c126,35 242,85 340,152 -442,-235 -1247,-198 -1189,420 54,383 708,649 1010,817 302,167 375,448 341,779 -29,190 -192,398 -336,462 -436,196 -922,33 -1181,-166 263,153 695,262 1060,68 368,-196 286,-700 -25,-909 -348,-248 -872,-471 -1016,-785 -96,-138 -51,-404 15,-544 286,-383 560,-411 981,-293z"/>
   <path class="fil0 str0" d="M10504 3493c126,35 242,85 340,152 -442,-235 -1247,-198 -1189,420 55,383 708,649 1010,817 302,167 375,448 341,779 -29,190 -192,398 -336,462 -436,196 -922,33 -1181,-166 263,153 695,262 1060,68 368,-196 286,-700 -25,-909 -348,-248 -872,-471 -1016,-785 -96,-138 -51,-404 15,-544 286,-383 560,-411 981,-293z"/>
   <polygon class="fil0 str0" points="5540,3465 5636,3465 5733,3465 7139,3465 7139,3548 5733,3548 5733,4736 6944,4736 6944,4819 5733,4819 5733,6084 7139,6084 7139,6167 5733,6167 5636,6167 5540,6167 "/>
  </g>
 </g>
</svg>
