<?xml version="1.0" encoding="UTF-8"?>
<!DOCTYPE svg PUBLIC "-//W3C//DTD SVG 1.1//EN" "http://www.w3.org/Graphics/SVG/1.1/DTD/svg11.dtd">
<!-- Creator: CorelDRAW X6 -->
<svg xmlns="http://www.w3.org/2000/svg" xml:space="preserve" width="100cm" height="10.6504cm" version="1.1" style="shape-rendering:geometricPrecision; text-rendering:geometricPrecision; image-rendering:optimizeQuality; fill-rule:evenodd; clip-rule:evenodd"
viewBox="0 0 100000 10650"
 xmlns:xlink="http://www.w3.org/1999/xlink">
 <defs>
  <style type="text/css">
   <![CDATA[
    .str0 {stroke:#2D2748;stroke-width:205.188;stroke-linejoin:round}
    .fil0 {fill:#2D2748}
   ]]>
  </style>
 </defs>
 <g id="Layer_x0020_1">
  <metadata id="CorelCorpID_0Corel-Layer"/>
  <path class="fil0 str0" d="M4015 331c469,131 900,318 1266,565 -1645,-877 -4646,-737 -4428,1566 203,1428 2638,2419 3761,3042 1123,624 1396,1667 1271,2901 -110,709 -716,1481 -1251,1722 -1624,729 -3433,122 -4397,-618 981,571 2590,975 3947,253 1372,-729 1067,-2608 -92,-3387 -1296,-926 -3247,-1756 -3785,-2925 -357,-514 -189,-1506 55,-2026 1066,-1427 2086,-1531 3652,-1093zm3172 -135l7560 0 0 269 -3459 0 0 9819 -783 0 0 -9819 -3318 0 0 -269zm16247 32l330 0 0 7060c-259,2644 -2852,3765 -5161,2967 -519,-179 -1244,-593 -1820,-1467 -214,-325 -411,-880 -407,-1404l0 -7105 841 0 0 7105c-42,700 362,1289 586,1623 578,863 1448,1121 2338,1110 1059,-13 2150,-461 2854,-1468 242,-346 486,-884 439,-1362l0 -7060zm11857 0l719 0 0 10063 -719 0 0 -10063zm7419 10320c2765,0 5006,-2333 5006,-5211 0,-2878 -2241,-5211 -5006,-5211 -2765,0 -5006,2333 -5006,5211 0,2878 2241,5211 5006,5211zm0 -154c2282,0 4133,-2264 4133,-5057 0,-2793 -1850,-5057 -4133,-5057 -2283,0 -4133,2264 -4133,5057 0,2793 1850,5057 4133,5057zm-16995 -10038l796 0c362,0 2603,57 2979,117 2609,418 4035,1925 4030,4751 32,2076 -686,3429 -1975,4179 -677,394 -1512,622 -2479,702 -777,64 -2638,7 -2554,6l-796 0 0 -9755zm796 91l0 9563c1546,-65 3392,-18 4369,-782 772,-605 1414,-1579 1572,-2510 691,-4085 -1266,-5474 -3042,-5994 -998,-292 -1838,-237 -2899,-277zm33037 -219l719 0 0 10063 -719 0 0 -10063zm-6854 0l257 0 5019 0 0 253 -5019 0 0 4505 4184 0 0 308 -4184 0 0 4996 -719 0 0 -10063 462 0zm9973 10008l-462 0 0 -9986 334 0 128 0 7342 8645 0 -8645 462 0 0 9986 -462 0 -7342 -8416 0 8416zm31274 -10008c1985,0 3971,0 5956,0l0 308 -5237 0 0 4425 4512 0 0 308 -4512 0 0 4714 5237 0 0 308 -5237 0 -360 0 -359 0 0 -10063zm-10396 103c469,131 900,318 1266,565 -1645,-877 -4646,-737 -4428,1566 203,1428 2638,2419 3761,3042 1123,624 1396,1667 1270,2901 -110,709 -716,1481 -1251,1722 -1624,729 -3433,122 -4397,-618 981,571 2590,975 3948,253 1372,-729 1067,-2608 -92,-3387 -1296,-926 -3247,-1756 -3785,-2925 -357,-514 -189,-1506 55,-2026 1066,-1427 2086,-1531 3652,-1093zm7137 0c469,131 900,318 1266,565 -1645,-877 -4646,-737 -4428,1566 203,1428 2638,2419 3761,3042 1123,624 1396,1667 1271,2901 -110,709 -716,1481 -1251,1722 -1624,729 -3433,122 -4397,-618 981,571 2589,975 3947,253 1372,-729 1067,-2608 -92,-3387 -1296,-926 -3247,-1756 -3785,-2925 -357,-514 -189,-1506 55,-2026 1066,-1427 2086,-1531 3652,-1093zm-18491 -103l359 0 360 0 5237 0 0 308 -5237 0 0 4425 4512 0 0 308 -4512 0 0 4714 5237 0 0 308 -5237 0 -360 0 -359 0 0 -10063z"/>
 </g>
</svg>
