<?xml version="1.0" encoding="UTF-8"?>
<!DOCTYPE svg PUBLIC "-//W3C//DTD SVG 1.1//EN" "http://www.w3.org/Graphics/SVG/1.1/DTD/svg11.dtd">
<!-- Creator: CorelDRAW X6 -->
<svg xmlns="http://www.w3.org/2000/svg" xml:space="preserve" width="8.9324cm" height="8.9324cm" version="1.1" style="shape-rendering:geometricPrecision; text-rendering:geometricPrecision; image-rendering:optimizeQuality; fill-rule:evenodd; clip-rule:evenodd"
viewBox="0 0 275 275"
 xmlns:xlink="http://www.w3.org/1999/xlink">
 <defs>
  <style type="text/css">
   <![CDATA[
    .fil0 {fill:#2D2748}
   ]]>
  </style>
 </defs>
 <g id="Layer_x0020_1">
  <metadata id="CorelCorpID_0Corel-Layer"/>
  <path class="fil0" d="M33 137c0,-13 1,-26 6,-37 8,-19 12,-25 24,-40 7,-8 20,-17 30,-21 10,-5 28,-11 40,-11 17,0 18,-1 35,4 6,2 13,4 18,7 11,6 21,13 30,21 9,9 15,19 21,30 13,27 13,63 -1,89 -4,7 -5,10 -10,17 -4,6 -8,10 -13,15 -1,1 -1,1 -2,2 -1,1 -1,2 -2,2 -11,10 -27,18 -42,21 -13,3 -15,2 -23,3 -4,1 -5,0 -8,0 -11,0 -22,-3 -30,-6 -5,-2 -8,-4 -13,-6 -15,-7 -8,-8 -21,-4l-18 6c-3,1 -7,2 -9,3 0,-3 11,-32 11,-35 0,-1 -8,-13 -9,-16 -6,-11 -12,-31 -12,-45zm100 -137l13 0c10,0 19,2 28,4 29,8 54,25 73,48 16,20 26,48 28,75l0 15c0,7 -1,15 -3,22 -4,15 -8,26 -16,39 -4,6 -7,11 -11,16l-7 7c-2,3 -5,4 -7,7 -13,13 -36,25 -53,30 -32,9 -66,6 -93,-6 -13,-6 -7,-6 -20,-2 -7,2 -14,5 -21,7l-31 10c-3,1 -7,3 -10,3l-1 0c-2,0 -3,-1 -3,-4 0,-3 21,-64 22,-65 2,-5 2,-3 -1,-8 -4,-7 -7,-15 -10,-23 -6,-19 -6,-27 -6,-47 0,-28 14,-62 32,-81 11,-12 11,-13 25,-23 6,-5 13,-8 20,-12 7,-4 15,-7 24,-9 9,-2 18,-4 28,-4zm-62 105c0,19 13,36 24,50 4,5 13,14 18,19 10,8 15,11 26,17l14 5c16,5 32,7 46,-5 7,-6 10,-13 10,-24 0,-7 -9,-9 -15,-12 -3,-1 -6,-3 -10,-4 -12,-5 -14,-6 -21,4 -2,3 -5,6 -7,9 -2,-1 -5,-2 -7,-3 -6,-3 -10,-6 -15,-10l-5 -5c-1,-1 -2,-1 -3,-2 -1,-1 -1,-2 -2,-3l-12 -14c4,-6 11,-9 11,-18 0,-3 -3,-8 -4,-10 -2,-3 -3,-6 -4,-10 -5,-12 -5,-20 -26,-13 -12,4 -17,19 -17,31z"/>
 </g>
</svg>
