<?xml version="1.0" encoding="UTF-8"?>
<!DOCTYPE svg PUBLIC "-//W3C//DTD SVG 1.1//EN" "http://www.w3.org/Graphics/SVG/1.1/DTD/svg11.dtd">
<!-- Creator: CorelDRAW X6 -->
<svg xmlns="http://www.w3.org/2000/svg" xml:space="preserve" width="8.20927cm" height="5.80448cm" version="1.1" style="shape-rendering:geometricPrecision; text-rendering:geometricPrecision; image-rendering:optimizeQuality; fill-rule:evenodd; clip-rule:evenodd"
viewBox="0 0 284 200"
 xmlns:xlink="http://www.w3.org/1999/xlink">
 <defs>
  <style type="text/css">
   <![CDATA[
    .fil0 {fill:#2D2748}
   ]]>
  </style>
 </defs>
 <g id="Layer_x0020_1">
  <metadata id="CorelCorpID_0Corel-Layer"/>
  <path class="fil0" d="M110 130l0 -63c0,-3 4,-8 9,-8 3,0 22,11 27,13l35 18c8,5 8,13 -2,17l-51 27c-3,1 -7,5 -11,4 -4,-1 -8,-4 -8,-9zm-110 -75l0 79c0,15 2,28 8,39 4,7 9,13 16,17 10,5 14,6 26,8 10,2 24,2 36,2l111 0c29,0 71,1 81,-33 3,-9 5,-21 5,-33l0 -75c0,-6 -1,-11 -1,-17 -2,-15 -7,-27 -21,-34 -16,-8 -41,-9 -64,-9l-111 0c-22,0 -49,1 -63,8 -9,4 -14,9 -18,18 -3,7 -6,20 -6,30z"/>
 </g>
</svg>
